:FULLY-SPECIFIED
:FORCE-ALL-JOINTS-BE-3DOF
:DEGREES
1
root 7.46593 15.9937 -36.7321 7.11356 1.31487 -3.66776
lfemur -40.6897 6.42258 -16.3516
ltibia 43.9106 0 0
lfoot -14.6186 8.34667 0
ltoes -11.8487 0 0
rfemur -9.89801 4.72659 30.1099
rtibia 24.1198 0 0
rfoot 0 0 0
rtoes 0 0 0
lowerback -4.29912 0.189404 0.939401
upperback -1.51886 0.185188 2.55702
thorax 0.845091 0.0960327 2.10705
lowerneck -18.6579 -5.17414 -13.3376
upperneck 13.6797 -6.63107 16.9236
head 8.38994 -2.28192 7.17028
lclavicle 6.33626e-15 1.59028e-14 0
lhumerus -35.9267 -2.97855 86.2544
lradius 27.4056 0 0
lwrist 7.30557 0 0
lhand -13.3003 -23.0211 0
lfingers 7.12502 0 0
lthumb 12.8038 6.56624 0
rclavicle 6.33626e-15 1.59028e-14 0
rhumerus -38.7688 17.4551 -84.1031
rradius 56.1989 0 0
rwrist -28.5696 0 0
rhand -33.2015 -25.7513 0
rfingers 7.12502 0 0
rthumb -6.4087 -55.6344 0
2
root 7.49146 15.9975 -36.5838 7.09432 1.09473 -3.60649
lfemur -40.5006 6.43997 -16.4666
ltibia 43.7496 -0 0
lfoot -14.5422 8.32977 -0.00067647
ltoes -11.7153 0 0
rfemur -9.75633 4.62517 29.875
rtibia 24.5879 -0 0
rfoot 0.16486 -0.157304 -0.0136436
rtoes -0.0234652 0 0
lowerback -4.31303 0.196247 0.888645
upperback -1.53207 0.196061 2.55765
thorax 0.838159 0.10171 2.13695
lowerneck -18.7197 -5.15778 -13.311
upperneck 13.7446 -6.60301 16.8569
head 8.41468 -2.27032 7.1483
lclavicle 6.27353e-15 1.57855e-14 -3.85335e-33
lhumerus -36.0038 -3.00157 86.2902
lradius 27.2925 -0 0
lwrist 7.11974 0 0
lhand -13.0322 -22.9256 0.0135046
lfingers 7.12502 -0 0
lthumb 13.0615 6.63336 0.00911356
rclavicle 6.27353e-15 1.57855e-14 -3.85335e-33
rhumerus -38.8473 17.4019 -84.227
rradius 55.9009 -0 0
rwrist -28.4187 0 0
rhand -33.1416 -25.7516 -1.02301e-05
rfingers 7.12502 -0 0
rthumb -6.35087 -55.636 -4.81992e-05
3
root 7.517 16.0012 -36.4355 7.07485 0.874619 -3.54516
lfemur -40.3116 6.45774 -16.5815
ltibia 43.5886 -0 0
lfoot -14.4658 8.31287 -0.0013304
ltoes -11.5819 0 0
rfemur -9.61426 4.52434 29.6399
rtibia 25.0561 -0 0
rfoot 0.329756 -0.314646 -0.0268344
rtoes -0.0469305 0 0
lowerback -4.32694 0.203078 0.837888
upperback -1.54527 0.206934 2.55828
thorax 0.83123 0.107391 2.16685
lowerneck -18.7816 -5.14138 -13.2843
upperneck 13.8095 -6.57488 16.7901
head 8.43942 -2.25872 7.12633
lclavicle 6.2108e-15 1.56682e-14 -7.57826e-33
lhumerus -36.0809 -3.02454 86.3261
lradius 27.1795 -0 0
lwrist 6.9339 0 0
lhand -12.764 -22.8301 0.0265622
lfingers 7.12502 -0 0
lthumb 13.3191 6.70051 0.0179252
rclavicle 6.2108e-15 1.56682e-14 -7.57826e-33
rhumerus -38.9256 17.3486 -84.3508
rradius 55.6029 -0 0
rwrist -28.2678 0 0
rhand -33.0817 -25.752 -2.01193e-05
rfingers 7.12502 -0 0
rthumb -6.29304 -55.6376 -9.47922e-05
4
root 7.54253 16.005 -36.2872 7.05515 0.654525 -3.48375
lfemur -40.1226 6.47589 -16.6964
ltibia 43.4276 -0 0
lfoot -14.3894 8.29597 -0.0019618
ltoes -11.4485 0 0
rfemur -9.4718 4.42409 29.4045
rtibia 25.5242 -0 0
rfoot 0.494688 -0.472026 -0.0395723
rtoes -0.0703957 0 0
lowerback -4.34086 0.209896 0.787128
upperback -1.55848 0.217808 2.55891
thorax 0.824304 0.113076 2.19675
lowerneck -18.8434 -5.12496 -13.2577
upperneck 13.8743 -6.54667 16.7235
head 8.46415 -2.2471 7.10436
lclavicle 6.14807e-15 1.55509e-14 -1.11747e-32
lhumerus -36.158 -3.04746 86.362
lradius 27.0664 -0 0
lwrist 6.74807 0 0
lhand -12.4958 -22.7345 0.0391725
lfingers 7.12502 -0 0
lthumb 13.5768 6.76771 0.0264348
rclavicle 6.14807e-15 1.55509e-14 -1.11747e-32
rhumerus -39.0038 17.2951 -84.4745
rradius 55.3049 -0 0
rwrist -28.1168 0 0
rhand -33.0218 -25.7523 -2.96676e-05
rfingers 7.12502 -0 0
rthumb -6.23521 -55.6392 -0.000139779
5
root 7.56806 16.0087 -36.1388 7.03521 0.434453 -3.42227
lfemur -39.9336 6.49441 -16.8113
ltibia 43.2666 -0 0
lfoot -14.313 8.27907 -0.00257065
ltoes -11.3151 0 0
rfemur -9.32894 4.32442 29.169
rtibia 25.9923 -0 0
rfoot 0.659655 -0.629442 -0.051857
rtoes -0.093861 0 0
lowerback -4.35479 0.216702 0.736367
upperback -1.57168 0.228681 2.55954
thorax 0.81738 0.118764 2.22665
lowerneck -18.9052 -5.10851 -13.2311
upperneck 13.9391 -6.51838 16.6568
head 8.48888 -2.23548 7.0824
lclavicle 6.08534e-15 1.54335e-14 -1.46427e-32
lhumerus -36.2352 -3.07033 86.398
lradius 26.9533 -0 0
lwrist 6.56223 0 0
lhand -12.2276 -22.6388 0.0513352
lfingers 7.12502 -0 0
lthumb 13.8345 6.83494 0.034642
rclavicle 6.08534e-15 1.54335e-14 -1.46427e-32
rhumerus -39.0818 17.2415 -84.5981
rradius 55.0069 -0 0
rwrist -27.9659 0 0
rhand -32.9619 -25.7526 -3.8875e-05
rfingers 7.12502 -0 0
rthumb -6.17738 -55.6408 -0.00018316
6
root 7.5936 16.0125 -35.9905 7.01503 0.214402 -3.36071
lfemur -39.7446 6.51331 -16.926
ltibia 43.1056 -0 0
lfoot -14.2366 8.26217 -0.00315697
ltoes -11.1817 0 0
rfemur -9.18569 4.22534 28.9332
rtibia 26.4604 -0 0
rfoot 0.824655 -0.786892 -0.0636885
rtoes -0.117326 0 0
lowerback -4.36872 0.223495 0.685605
upperback -1.58489 0.239555 2.56016
thorax 0.81046 0.124456 2.25655
lowerneck -18.967 -5.09203 -13.2045
upperneck 14.0038 -6.49002 16.5902
head 8.5136 -2.22384 7.06045
lclavicle 6.0226e-15 1.53162e-14 -1.79823e-32
lhumerus -36.3123 -3.09315 86.4339
lradius 26.8403 -0 0
lwrist 6.3764 0 0
lhand -11.9594 -22.5431 0.06305
lfingers 7.12502 -0 0
lthumb 14.0922 6.90221 0.0425468
rclavicle 6.0226e-15 1.53162e-14 -1.79823e-32
rhumerus -39.1597 17.1877 -84.7216
rradius 54.7089 -0 0
rwrist -27.815 0 0
rhand -32.902 -25.7529 -4.77414e-05
rfingers 7.12502 -0 0
rthumb -6.11955 -55.6424 -0.000224934
7
root 7.61913 16.0162 -35.8422 6.99462 -0.00562783 -3.29908
lfemur -39.5557 6.53258 -17.0408
ltibia 42.9447 -0 0
lfoot -14.1601 8.24526 -0.00372074
ltoes -11.0483 0 0
rfemur -9.04205 4.12684 28.6972
rtibia 26.9286 -0 0
rfoot 0.989686 -0.944376 -0.0750664
rtoes -0.140791 0 0
lowerback -4.38265 0.230277 0.634841
upperback -1.59809 0.250429 2.56078
thorax 0.803543 0.130152 2.28645
lowerneck -19.0288 -5.07553 -13.178
upperneck 14.0685 -6.46159 16.5237
head 8.53832 -2.2122 7.03849
lclavicle 5.95987e-15 1.51989e-14 -2.11934e-32
lhumerus -36.3895 -3.11593 86.4699
lradius 26.7272 -0 0
lwrist 6.19057 0 0
lhand -11.6912 -22.4474 0.0743166
lfingers 7.12502 -0 0
lthumb 14.3499 6.96951 0.050149
rclavicle 5.95987e-15 1.51989e-14 -2.11934e-32
rhumerus -39.2375 17.1337 -84.8449
rradius 54.411 -0 0
rwrist -27.6641 0 0
rhand -32.8422 -25.7533 -5.62669e-05
rfingers 7.12502 -0 0
rthumb -6.06172 -55.6439 -0.000265102
